<?xml version="1.0" standalone="no"?>
<!DOCTYPE svg PUBLIC "-//W3C//DTD SVG 20010904//EN"
 "http://www.w3.org/TR/2001/REC-SVG-20010904/DTD/svg10.dtd">
<svg version="1.0" xmlns="http://www.w3.org/2000/svg"
 width="5584.000000pt" height="1699.000000pt" viewBox="0 0 5584.000000 1699.000000"
 preserveAspectRatio="xMidYMid meet">

<g transform="translate(0.000000,1699.000000) scale(0.100000,-0.100000)"
fill="#000000" stroke="none">
<path d="M37615 15224 c-507 -41 -889 -120 -1303 -270 -465 -169 -906 -426
-1327 -775 -143 -119 -437 -411 -577 -572 -775 -897 -1140 -1957 -1088 -3156
48 -1077 414 -1981 1136 -2798 745 -843 1706 -1369 2774 -1518 417 -58 955
-61 1375 -9 493 61 973 202 1401 412 209 103 294 152 499 287 751 495 1387
1241 1729 2026 427 982 482 2195 146 3229 -212 652 -597 1266 -1130 1800 -713
715 -1562 1151 -2520 1295 -252 38 -379 47 -720 50 -190 1 -367 1 -395 -1z
m795 -999 c562 -78 1059 -270 1495 -578 363 -256 703 -596 948 -949 205 -295
375 -651 472 -988 208 -723 190 -1560 -49 -2255 -132 -386 -308 -706 -570
-1035 -131 -164 -437 -469 -606 -604 -510 -406 -1048 -636 -1690 -723 -190
-25 -739 -26 -915 0 -314 46 -555 108 -805 207 -450 179 -825 433 -1210 819
-364 365 -613 741 -793 1196 -305 772 -325 1748 -52 2545 176 511 451 945 862
1355 302 302 592 513 948 690 386 193 736 289 1230 339 100 10 625 -3 735 -19z"/>
<path d="M37210 11750 l0 -680 680 0 680 0 0 680 0 680 -680 0 -680 0 0 -680z"/>
<path d="M37210 9320 l0 -680 680 0 680 0 0 680 0 680 -680 0 -680 0 0 -680z"/>
<path d="M2870 15195 c-480 -58 -872 -247 -1211 -585 -399 -397 -598 -836
-616 -1365 -21 -588 196 -1111 629 -1520 380 -359 844 -628 1433 -831 133 -46
461 -208 607 -301 395 -250 706 -530 875 -790 322 -493 364 -1213 103 -1761
-93 -195 -209 -352 -382 -517 -375 -358 -843 -519 -1346 -464 -363 39 -696
200 -973 470 -278 272 -455 670 -539 1215 -11 71 -20 143 -20 159 -1 67 20 72
-552 -135 -293 -106 -535 -194 -537 -196 -7 -6 32 -203 74 -370 96 -380 252
-712 476 -1011 88 -118 326 -363 464 -480 363 -305 809 -511 1285 -592 366
-63 834 -51 1180 30 540 125 990 386 1389 804 411 432 659 940 737 1515 24
173 24 539 1 710 -68 492 -257 931 -566 1319 -150 187 -367 399 -602 587 -106
85 -391 277 -518 348 -230 131 -530 267 -777 352 -295 102 -684 331 -938 550
-196 171 -330 412 -366 663 -19 130 -8 363 23 482 47 179 124 316 256 452 226
234 483 333 788 305 123 -11 264 -58 374 -124 108 -65 256 -206 313 -297 56
-90 152 -290 202 -424 22 -57 43 -103 48 -103 5 0 231 86 503 192 l495 192 -6
28 c-22 112 -174 441 -272 591 -287 438 -776 767 -1299 872 -229 46 -509 57
-735 30z"/>
<path d="M8017 15103 c-4 -3 -7 -2013 -7 -4465 l0 -4458 565 0 565 0 0 4465 0
4465 -558 0 c-307 0 -562 -3 -565 -7z"/>
<path d="M11427 15103 c-4 -3 -7 -2013 -7 -4465 l0 -4458 565 0 565 0 2 3620
3 3619 1465 -1919 c1296 -1699 1466 -1918 1478 -1902 7 9 666 875 1465 1924
l1452 1907 3 -3625 2 -3624 560 0 560 0 0 4465 0 4465 -592 0 c-326 0 -598 -4
-604 -8 -6 -4 -651 -848 -1434 -1875 -1364 -1791 -1423 -1868 -1440 -1850 -10
10 -655 854 -1435 1876 l-1418 1857 -592 0 c-325 0 -595 -3 -598 -7z"/>
<path d="M21767 15103 c-4 -3 -7 -2013 -7 -4465 l0 -4458 565 0 565 0 0 1460
0 1460 638 0 c350 0 689 5 752 10 268 24 476 66 715 145 453 149 828 385 1187
747 517 522 802 1123 869 1832 17 183 7 551 -21 730 -26 171 -84 403 -140 556
-95 263 -272 575 -462 812 -96 120 -369 397 -478 485 -447 360 -941 577 -1530
673 -121 19 -166 20 -1386 20 -693 0 -1264 -3 -1267 -7z m2441 -994 c338 -36
659 -168 947 -387 90 -69 289 -266 360 -357 225 -288 350 -583 401 -950 21
-156 21 -457 0 -618 -59 -436 -243 -811 -550 -1120 -351 -354 -748 -546 -1211
-586 -66 -6 -378 -11 -692 -11 l-573 0 0 2020 0 2020 610 0 c361 0 651 -4 708
-11z"/>
<path d="M29117 15103 c-4 -3 -7 -2013 -7 -4465 l0 -4458 2170 0 2170 0 -2
488 -3 487 -1602 3 -1603 2 -2 3973 -3 3972 -556 3 c-305 1 -559 -1 -562 -5z"/>
<path d="M43657 15103 c-4 -3 -7 -2013 -7 -4465 l0 -4458 565 0 565 0 2 3469
3 3470 2471 -3467 2471 -3467 627 -3 626 -2 -2 4462 -3 4463 -562 3 -563 2 -2
-3563 -3 -3563 -2520 3535 c-1386 1944 -2531 3547 -2543 3563 l-24 28 -547 0
c-301 0 -551 -3 -554 -7z"/>
<path d="M45610 4619 c-252 -32 -520 -136 -727 -282 -163 -115 -371 -333 -477
-499 -97 -153 -175 -348 -217 -548 -31 -144 -34 -492 -5 -645 97 -525 448
-979 939 -1215 201 -97 398 -145 642 -156 379 -18 763 95 1050 311 109 81 275
240 348 333 l45 58 -144 53 -145 54 -91 -92 c-209 -210 -430 -335 -701 -393
-136 -29 -426 -32 -559 -5 -364 73 -684 292 -893 612 -103 156 -169 325 -199
504 -18 107 -21 348 -6 456 81 568 546 1049 1114 1152 138 25 401 22 533 -6
302 -64 566 -217 759 -442 l39 -46 147 55 148 54 -32 42 c-17 22 -90 100 -162
171 -269 269 -561 416 -927 470 -114 16 -366 19 -479 4z"/>
<path d="M49080 4620 c-474 -64 -905 -337 -1179 -745 -120 -180 -207 -393
-247 -610 -29 -154 -26 -511 5 -655 76 -352 247 -650 514 -895 309 -282 645
-422 1062 -441 335 -16 685 73 952 243 197 124 420 347 546 545 97 151 178
352 219 544 21 97 23 135 23 349 -1 211 -3 253 -23 345 -49 225 -144 443 -269
620 -87 122 -291 326 -413 413 -181 128 -400 222 -627 268 -121 24 -443 35
-563 19z m480 -304 c333 -59 632 -246 853 -533 131 -170 217 -369 258 -593 23
-122 17 -402 -9 -527 -114 -532 -532 -950 -1065 -1065 -148 -32 -436 -32 -584
0 -259 56 -464 166 -661 356 -124 120 -212 234 -280 365 -106 201 -146 376
-146 631 0 113 6 195 17 260 49 265 177 507 377 710 232 237 499 370 820 410
99 12 313 5 420 -14z"/>
<path d="M43455 1861 c-58 -16 -84 -30 -125 -67 -55 -50 -82 -105 -88 -180 -8
-111 40 -205 136 -262 42 -24 57 -27 137 -27 80 0 95 3 137 27 96 57 144 151
136 262 -3 34 -15 80 -26 102 -25 49 -88 108 -138 129 -46 19 -129 27 -169 16z"/>
</g>
</svg>
