<?xml version="1.0" encoding="utf-8"?>
<svg version="1.1" id="Layer_1" xmlns="http://www.w3.org/2000/svg" xmlns:xlink="http://www.w3.org/1999/xlink" x="0px" y="0px"
	 viewBox="0 0 1100.109 1651.72" enable-background="new 0 0 1100.109 1651.72" xml:space="preserve" fill="#925c3b2a" stroke="black" stroke-width="8">
<g>
	<path d="M917.658,1625.86c-296.605,0-593.21,0-889.815,0c3.526-26.216,6.217-84.514,30.557-167.454
		c66.101-225.236,74.36-184.048,117.177-249.348c8.751-13.346,18.214-57.45,51.076-99.256
		c35.444-45.09,103.668-57.34,133.653-180.968c18.521-76.361-2.958-115.03-20.653-147.222
		c-63.888-116.229-122.287-162.179-159.156-250.408C86.611,306.83,211.901,95.5,407.971,45.853
		c66.341-16.798,178.696-21.362,219.759-17.66c117.165,10.561,204.006,59.048,277.316,163.001
		c14.774,20.95,25.431,54.526,31.403,79.542c9.621,40.294,20.49,62.357,19.98,76.27c-0.118,3.215-1.57,6.386-0.89,9.76
		c0.089,0.444-0.107,1.023-0.342,1.444c-3.461,6.193-2.953,13.31-4.279,19.955c-2.23,11.173-8.634,29.753-0.768,40.646
		c4.501,6.233,2.397,10.797,16.933,21.95c26.499,20.332,40.628,38.877,59.999,55.338c23.022,19.564,48.974,48.676,44.611,78.514
		c-3.491,23.875-46.286,37.222-38.557,40.411c6.498,2.681,25.528,30.358,25.911,48.211c0.193,8.984-3.966,16.793-7.021,24.856
		c-1.445,3.812-1.745,3.592,0.943,6.861c20.118,24.458,0.229,45.622-6.546,62.774c-7.337,18.573-11.683,15.092-1.18,24.364
		c1,0.883,3.401,1.834,5.613,5.573c14.425,24.381,33.638,50.671-6.567,100.734c-24.979,31.103-80.906,28.459-107.872,27.759
		c-35.966-0.934-101.439-21.934-96.052,6.657c0.913,4.847,0.579,9.661,0.838,14.487c0.759,14.174,4.472,24.373,3.195,37.177
		c-1.229,12.321-0.607,23.944-5.541,37.385c-5.15,14.021-18.74,23.109-25.988,35.859c-24.018,42.25-16.711,31.564-23.924,49.406
		c-23.86,59.018-57.583,88.57-47.496,121.281c3.383,10.971,13.502,17.211,21.048,25.614c44.594,49.651,28.197,55.324,97.914,195.956
		c17.717,34.898,30.436,87.863,48.075,152.033C911.586,1603.281,914.604,1614.576,917.658,1625.86z"/>
</g>
</svg>
