<?xml version="1.0" standalone="no"?>
<!DOCTYPE svg PUBLIC "-//W3C//DTD SVG 20010904//EN"
 "http://www.w3.org/TR/2001/REC-SVG-20010904/DTD/svg10.dtd">
<svg version="1.0" xmlns="http://www.w3.org/2000/svg"
 width="225.000000pt" height="225.000000pt" viewBox="0 0 225.000000 225.000000"
 preserveAspectRatio="xMidYMid meet">

<g transform="translate(0.000000,225.000000) scale(0.100000,-0.100000)"
fill="#000000" stroke="none">
<path d="M926 2074 c-301 -59 -561 -263 -696 -545 -67 -141 -83 -219 -84 -404
0 -137 3 -172 23 -245 42 -157 116 -289 227 -409 217 -235 519 -347 840 -311
225 24 399 103 559 253 144 134 228 267 281 444 37 125 44 327 16 463 -77 372
-381 673 -757 751 -108 22 -305 24 -409 3z m334 -198 c160 -29 287 -102 411
-233 140 -150 203 -310 202 -518 0 -144 -18 -228 -73 -340 -97 -200 -285 -353
-499 -406 -122 -31 -292 -24 -410 16 -248 84 -452 316 -501 572 -8 38 -11 111
-8 190 8 216 66 350 218 504 185 187 409 260 660 215z"/>
<path d="M970 1355 l0 -145 145 0 145 0 0 145 0 145 -145 0 -145 0 0 -145z"/>
<path d="M970 840 l0 -140 145 0 145 0 0 140 0 140 -145 0 -145 0 0 -140z"/>
</g>
</svg>
